<svg xmlns="http://www.w3.org/2000/svg" viewBox="0 0 512 512" role="img" aria-label="Studio32">
  <rect width="512" height="512" rx="96" fill="#1d2423"/>
  <path fill="#f6f5f0" d="M148 151c25-22 56-34 92-34 34 0 62 8 83 25 21 16 31 38 31 65 0 18-5 34-16 49-11 14-26 25-45 32 23 6 41 17 54 34 13 16 19 35 19 56 0 31-12 56-37 75-25 18-58 28-98 28-35 0-66-7-92-22-26-14-46-34-59-59l59-35c9 17 21 30 37 39 16 8 34 13 54 13 22 0 39-4 51-13 13-8 19-20 19-35 0-16-7-28-21-36-14-9-33-13-57-13h-46v-59h45c21 0 38-4 51-13 13-9 19-21 19-36 0-13-5-24-16-31-11-8-26-12-44-12-35 0-63 13-86 40l-48-44Z"/>
  <path fill="#9bc4bb" d="M124 342c52-33 94-57 126-72 32-16 55-30 70-43 15-12 23-27 23-43 0-14-5-25-16-33-10-8-25-12-44-12-36 0-70 17-101 50l-49-46c41-48 93-72 157-72 38 0 68 10 91 30 23 20 34 47 34 80 0 27-8 50-25 69-17 19-42 37-76 55-22 12-48 26-78 42h181v64H124v-69Z" opacity=".85"/>
</svg>
